#!OML:ASF F:\VICON\USERDATA\INSTALL\rory3\rory3.ASF
:FULLY-SPECIFIED
:DEGREES
194
root 0.5169446208515152 17.639646344248195 37.08987733128721 1.8386440920420597 0.9344186853843484 -0.3241843887267222
lfemur -13.412900524236985 -0.029923260611458447 -21.87989107664358
ltibia 44.42000162522756
lfoot 4.841027501053317 -10.66930012589279
ltoes -6.419441138579545
rfemur -19.51828996749094 2.804290268448808 27.469373919821294
rtibia 58.08133129233445
rfoot -2.281217544139351 -6.867166197342257
rtoes -3.2982585635255885
lowerback 13.105592194812262 0.4079783130556067 0.9478089623688976
upperback -0.6042410965878248 1.6334240312879582 1.204589073785849
thorax -8.285338893018814 0.9371696502169737 0.8363644722881131
lowerneck -18.799139794100437 -3.996071351461916 -2.379509898489469
upperneck 13.965883664521083 -5.458286076264621 2.9668334320337437
head 7.409497380434094 -2.5169659555409334 0.7252264765543052
lclavicle 3.0724827264545893e-16 -4.3067221206564905e-16
lhumerus -48.926128500422074 -14.92777470391317 97.9607573525901
lradius 109.74577021586832
lwrist 32.23950436501726
lhand -25.70409470672005 3.4556106547620344
lfingers 7.125020000000001
lthumb 0.718851968762204 32.93133063035717
rclavicle 3.0728743657241976e-16 -4.3064985682852227e-16
rhumerus -43.99465554308492 8.51924790540451 -95.94794847979898
rradius 103.89114262140366
rwrist -19.507511731748465
rhand -18.42947518684994 37.4855382979224
rfingers 7.125020000000001
rthumb 7.905717414767514 7.561223589340245
195
root 0.5386421418653158 17.694861504765274 39.46303491998663 2.0273207324931697 1.2913032028270324 0.00951324470628312
lfemur -13.033396163783516 0.1730297110901905 -21.671678126901732
ltibia 45.03929826825238
lfoot 4.630076246316655 -11.095856261027553
ltoes -6.896602499176
rfemur -19.931719851034327 3.064111762618418 27.673973990279332
rtibia 57.7623383817471
rfoot -2.2879352196952736 -6.885311751782768
rtoes -3.9218931177309964
lowerback 13.196640246231619 0.4131345059143361 0.9424924509355235
upperback -0.6281646575980984 1.4628302626161163 1.1514298615093417
thorax -8.1677444005841 1.0119275385070674 1.1080044981181125
lowerneck -18.760707331629124 -3.935198136605184 -2.3849530518579134
upperneck 14.00917555760565 -5.380427025172094 2.953485370002593
head 7.426401371448039 -2.498973322077917 0.7275646519573442
lclavicle 3.0724827264545893e-16 -4.3067221206564905e-16
lhumerus -48.6012627531979 -14.872130805264371 98.04895736083746
lradius 109.82831308460202
lwrist 32.24170914326577
lhand -25.75658906354915 3.4113746562392624
lfingers 7.125020000000001
lthumb 0.6788257319885269 32.85245753684165
rclavicle 3.0728743657241976e-16 -4.3064985682852227e-16
rhumerus -44.5129804067709 8.382391768048116 -96.05522361787168
rradius 103.91203749038488
rwrist -19.49170416671022
rhand -18.411370315936146 37.52784222399989
rfingers 7.125020000000001
rthumb 7.938401196716751 7.565480152634714
196
root 0.5430089446795712 17.7111753758348 39.84081860847804 2.0330798832420927 1.3894556698555962 0.009979467341779902
lfemur -14.188473387906198 0.19816081315915846 -21.465661384100823
ltibia 45.548994432801955
lfoot 4.120491570160655 -11.026523446037618
ltoes -7.5892720608841655
rfemur -21.23099724487186 3.035437885216948 27.04671456625024
rtibia 57.55478100816762
rfoot -1.6378205180293506 -6.554520716713746
rtoes -3.6369057338068735
lowerback 13.285887389369233 0.4202976609043291 0.9200644653745423
upperback -0.6442896197718994 1.327499196995259 1.130095766231873
thorax -8.197088970334919 0.9941539414593424 1.113531756002068
lowerneck -18.881625141574716 -3.9302601459241244 -2.4062936763284757
upperneck 14.036327735078318 -5.3012206428364665 2.9466108132223447
head 7.443698224688395 -2.469767927029319 0.730224239016479
lclavicle 3.0724827264545893e-16 -4.3067221206564905e-16
lhumerus -49.11422397174151 -14.765760657617552 97.94064305361388
lradius 110.05278490565355
lwrist 32.28783851500549
lhand -25.827075561510686 3.3747840163153087
lfingers 7.125020000000001
lthumb 0.6954446991722902 32.9394411390145
rclavicle 3.0728743657241976e-16 -4.3064985682852227e-16
rhumerus -44.637307086943544 8.359052297443256 -96.09588115632073
rradius 103.82726453006605
rwrist -19.442151973269873
rhand -18.43632744198572 37.519270293445544
rfingers 7.125020000000001
rthumb 7.895943032852717 7.488695390727314
197
root 0.545584977355265 17.73575688746095 39.958987591932726 2.112013564775401 1.5446527611427008 0.08425417990088091
lfemur -13.853230050337382 0.5417259720985043 -21.082102675426867
ltibia 46.21506698202681
lfoot 4.300984161952934 -10.390772159772915
ltoes -8.071080474705003
rfemur -18.634206329652496 3.37916866095282 27.75875396785159
rtibia 57.34166139843675
rfoot -1.5715032719451596 -6.173621819922666
rtoes -3.67881397317801
lowerback 13.396124336004725 0.4408451736687036 0.9061565955731168
upperback -0.6006816132315342 1.3946193111152752 1.2125223888011973
thorax -8.286943378181215 0.8161204077592362 0.8875868758283263
lowerneck -18.896524015211217 -3.8599177920894094 -2.378808193662257
upperneck 14.054155151684789 -5.207848868864047 2.951964486161529
head 7.4616657118635015 -2.4159106089940026 0.7425594130701971
lclavicle 3.0724827264545893e-16 -4.3067221206564905e-16
lhumerus -48.23284391925125 -14.607439823110983 97.94802512873481
lradius 110.09734864099534
lwrist 32.47178820219649
lhand -25.912400655951195 3.2981961551458214
lfingers 7.125020000000001
lthumb 0.6998847907256565 33.000199670274384
rclavicle 3.0728743657241976e-16 -4.3064985682852227e-16
rhumerus -44.956104256755836 8.30413728060625 -96.15061910321185
rradius 103.7634345711794
rwrist -19.445184229922653
rhand -18.412481136599496 37.541087358328106
rfingers 7.125020000000001
rthumb 7.937522730840642 7.492036424964262
